<svg xmlns="http://www.w3.org/2000/svg" xmlns:xlink="http://www.w3.org/1999/xlink" width="500" zoomAndPan="magnify" viewBox="0 0 375 374.999991" height="500" preserveAspectRatio="xMidYMid meet" version="1.0"><defs><clipPath id="7ea225c8c3"><path d="M 5.390625 292 L 369 292 L 369 375 L 5.390625 375 Z M 5.390625 292 " clip-rule="nonzero"/></clipPath><clipPath id="70b891044d"><path d="M 345 139 L 369.890625 139 L 369.890625 151 L 345 151 Z M 345 139 " clip-rule="nonzero"/></clipPath></defs><rect x="-37.5" width="450" fill="#ffffff" y="-37.499999" height="449.999989" fill-opacity="1"/><g clip-path="url(#7ea225c8c3)"><path fill="#51ade5" d="M 368.667969 333.726562 C 368.667969 310.964844 287.34375 292.507812 187.023438 292.507812 C 86.707031 292.507812 5.375 310.964844 5.375 333.726562 C 5.375 356.492188 86.707031 374.949219 187.023438 374.949219 C 287.34375 374.949219 368.667969 356.492188 368.667969 333.726562 " fill-opacity="1" fill-rule="nonzero"/></g><path fill="#f7981a" d="M 316.070312 39.167969 C 316.070312 33.898438 312.527344 29.355469 308.179688 29.628906 C 301.089844 30.082031 298.546875 35.328125 298.546875 40.59375 C 298.546875 45.859375 302.832031 49.871094 308.179688 48.703125 C 312.433594 47.769531 316.070312 44.433594 316.070312 39.167969 " fill-opacity="1" fill-rule="nonzero"/><path fill="#26285d" d="M 283.546875 317.015625 C 283.546875 317.015625 282.136719 317.714844 282.117188 318.183594 C 282.105469 318.652344 281.386719 324.886719 281.746094 325.980469 C 282.105469 327.070312 301.21875 329.175781 301.21875 329.175781 C 301.21875 329.175781 310.882812 328.703125 311.894531 327.464844 C 312.90625 326.214844 312.464844 325.28125 311.894531 325.121094 C 311.316406 324.96875 289.03125 316.46875 289.03125 316.46875 L 283.546875 317.015625 " fill-opacity="1" fill-rule="nonzero"/><path fill="#26285d" d="M 260.878906 321.785156 C 260.878906 321.785156 263.023438 320.792969 264.03125 320.878906 C 265.050781 320.960938 267.25 322.199219 267.25 322.199219 C 267.25 322.199219 263.46875 320.003906 269.9375 322.101562 C 269.9375 322.101562 287.90625 333.671875 287.675781 334.351562 C 287.445312 335.035156 283.394531 337.070312 272.316406 334.945312 C 272.316406 334.945312 262.46875 331.402344 260.710938 329.746094 C 260.445312 329.488281 259.394531 322.648438 260.878906 321.785156 " fill-opacity="1" fill-rule="nonzero"/><path fill="#f68c82" d="M 261.824219 312.675781 C 261.824219 312.675781 261.585938 322.277344 261.640625 322.453125 C 262.089844 323.902344 266.21875 323.996094 267.445312 322.894531 L 269.847656 313.65625 L 261.824219 312.675781 " fill-opacity="1" fill-rule="nonzero"/><path fill="#f68c82" d="M 283.125 309.066406 C 283.125 309.066406 282.96875 318.605469 283.035156 318.84375 C 283.464844 320.304688 287.433594 320.582031 288.652344 319.464844 L 290.433594 309.867188 L 283.125 309.066406 " fill-opacity="1" fill-rule="nonzero"/><path fill="#26285d" d="M 308.6875 137.476562 C 308.6875 137.476562 305.621094 206.675781 302.285156 239.089844 C 302.285156 239.089844 284.84375 236.257812 283.074219 228.8125 C 281.316406 221.351562 284.640625 141.324219 284.640625 141.324219 L 308.6875 137.476562 " fill-opacity="1" fill-rule="nonzero"/><path fill="#2e3192" d="M 281.542969 140.359375 C 281.785156 143.875 307.25 138.769531 307.480469 142.363281 C 308.347656 155.816406 286.835938 193.40625 286.871094 193.898438 C 278.515625 251.871094 275.417969 311.433594 272.3125 323.640625 C 271.023438 328.71875 260.105469 323.640625 260.105469 323.640625 C 258.253906 257.738281 256.699219 145.808594 256.699219 145.808594 C 263.253906 141.472656 272.664062 140.269531 281.542969 140.359375 " fill-opacity="1" fill-rule="nonzero"/><path fill="#26285d" d="M 288.355469 224.910156 C 288.355469 224.910156 283.761719 224.128906 283.0625 226.625 C 282.367188 229.113281 281.644531 302.59375 281.644531 320.152344 C 281.644531 320.152344 291.75 322.617188 293.886719 319.402344 C 297.171875 314.441406 302.285156 239.089844 302.285156 239.089844 L 288.355469 224.910156 " fill-opacity="1" fill-rule="nonzero"/><path fill="#bdbcbc" d="M 296.761719 68.519531 C 296.761719 68.519531 288.421875 58.679688 284.726562 66.738281 C 270.0625 98.679688 284.726562 133.066406 345.875 148.113281 C 345.875 148.113281 354.382812 151.226562 352.585938 144.070312 C 350.789062 136.859375 320.78125 114.4375 320.78125 114.4375 C 317.597656 99.339844 310.742188 83.886719 296.761719 68.519531 " fill-opacity="1" fill-rule="nonzero"/><path fill="#ffffff" d="M 291.703125 57.1875 C 291.703125 57.1875 286.1875 54.890625 279.980469 55.488281 C 276.359375 55.84375 271.289062 56.246094 268.160156 59.59375 C 260.578125 69.253906 259.980469 74.777344 259.980469 74.777344 C 252.949219 91.855469 260.765625 129.054688 258.496094 146.96875 C 258.496094 146.96875 300.578125 172.359375 308.292969 139.472656 L 308.417969 121.910156 C 311.082031 107.183594 317.277344 91.429688 309.132812 74.230469 C 309.132812 74.230469 301.367188 58.578125 291.703125 57.1875 " fill-opacity="1" fill-rule="nonzero"/><path fill="#e66f64" d="M 282.347656 40.90625 C 282.347656 40.90625 281.511719 52.898438 277.714844 56.5625 C 276.679688 57.570312 290.945312 62.0625 295.496094 60.035156 C 296.476562 59.589844 298.195312 47.441406 298.195312 47.441406 L 282.347656 40.90625 " fill-opacity="1" fill-rule="nonzero"/><path fill="#2e3192" d="M 256.621094 123.191406 C 256.621094 123.191406 290.6875 139.976562 290.6875 113.28125 C 290.6875 87.210938 289.253906 59.605469 271.296875 57.355469 C 270.863281 57.296875 275.992188 55.777344 275.992188 55.777344 C 275.992188 55.777344 295.625 63.5625 298.195312 96.75 L 309.945312 96.414062 C 309.945312 96.414062 315.800781 76.066406 296.390625 58.960938 C 295.726562 58.378906 296.222656 58.820312 296.222656 58.820312 C 296.222656 58.820312 314.3125 66.6875 313.191406 91.378906 C 312.0625 116.074219 310.253906 123.457031 310.253906 123.457031 L 309.652344 139.292969 L 306.628906 149.347656 C 306.628906 149.347656 291.195312 158.441406 290.433594 159.128906 C 290.09375 159.429688 283.855469 159.21875 277.011719 158.890625 C 268.417969 158.472656 258.878906 157.867188 258.878906 157.867188 L 256.699219 153.265625 L 256.621094 123.191406 " fill-opacity="1" fill-rule="nonzero"/><path fill="#f7981a" d="M 277.054688 148.90625 L 277.054688 156.652344 C 277.054688 156.652344 301.871094 157.515625 308.039062 150.160156 L 308.039062 142.625 C 308.039062 142.625 302.335938 149.414062 277.054688 148.90625 " fill-opacity="1" fill-rule="nonzero"/><path fill="#f7981a" d="M 276.035156 166.363281 L 262.125 187.550781 L 264.328125 189.753906 L 278.917969 168.90625 L 276.035156 166.363281 " fill-opacity="1" fill-rule="nonzero"/><path fill="#f68c82" d="M 294.835938 14.882812 C 294.835938 14.882812 309.855469 13.722656 314.820312 25.449219 C 314.820312 25.449219 314.820312 37.585938 305.683594 50.1875 C 302.699219 54.300781 300.980469 56.195312 296.15625 55.042969 C 296.15625 55.042969 279.023438 50.585938 281.523438 38.335938 C 283.78125 27.308594 289.855469 15.859375 294.835938 14.882812 " fill-opacity="1" fill-rule="nonzero"/><path fill="#2e3192" d="M 286.308594 38.492188 C 286.308594 38.492188 284.90625 34.019531 298.046875 33.597656 C 309.339844 33.246094 313.601562 27.691406 315.128906 27.09375 C 318.800781 25.660156 306.613281 23.140625 306.613281 23.140625 C 306.613281 23.140625 312.824219 16.820312 305.117188 13.097656 C 302.71875 11.945312 283.195312 7.253906 276.085938 23.449219 C 271.28125 34.390625 279.875 47.714844 281.222656 50.464844 C 282.570312 53.210938 286.308594 38.492188 286.308594 38.492188 " fill-opacity="1" fill-rule="nonzero"/><path fill="#26285d" d="M 312.730469 38.46875 C 312.730469 38.46875 310.316406 38.984375 309.597656 39.308594 C 309.597656 39.308594 308.160156 39.554688 307.417969 39.214844 C 306.667969 38.878906 303.746094 36.445312 294.910156 34.207031 L 281.207031 31.164062 C 281.207031 31.164062 280.398438 33.347656 280.132812 34.042969 C 279.871094 34.734375 282.492188 32.949219 282.492188 32.949219 L 292.738281 35.628906 C 292.738281 35.628906 289.972656 43.34375 296.96875 45.597656 C 303.964844 47.855469 307.070312 43.601562 307.070312 43.601562 L 308.472656 43.480469 C 308.472656 43.480469 307.953125 46.738281 308.558594 47.320312 C 309.167969 47.914062 312.855469 41.695312 312.730469 38.46875 " fill-opacity="1" fill-rule="nonzero"/><path fill="#2e3192" d="M 281.222656 50.464844 C 281.222656 50.464844 280.441406 49.523438 279.042969 49.78125 C 277.640625 50.03125 274.84375 50.09375 274.972656 47.871094 C 275.097656 45.648438 273.253906 41.007812 271.34375 41.515625 C 267.632812 42.488281 266.25 38.890625 269.328125 36.726562 C 271.949219 34.878906 273.660156 33.015625 269.285156 32.441406 C 268.308594 32.320312 265.765625 27.972656 270.855469 27.402344 C 275.949219 26.832031 271.789062 25.03125 272.085938 23.035156 C 272.363281 21.171875 276.847656 20.40625 279.085938 22.699219 C 281.320312 24.984375 277.390625 26.640625 277.390625 26.640625 L 282.410156 48.3125 L 281.222656 50.464844 " fill-opacity="1" fill-rule="nonzero"/><path fill="#f68c82" d="M 288.585938 38.097656 C 288.285156 41.632812 286.417969 44.359375 284.410156 44.195312 C 282.402344 44.015625 281.019531 41.019531 281.316406 37.484375 C 281.617188 33.949219 283.488281 31.226562 285.492188 31.386719 C 286.914062 31.511719 288.023438 33.054688 288.445312 35.207031 C 288.617188 36.089844 288.671875 37.066406 288.585938 38.097656 " fill-opacity="1" fill-rule="nonzero"/><path fill="#e66f64" d="M 351.96875 150.796875 C 351.96875 150.796875 353.121094 154.851562 352.910156 156.296875 C 352.707031 157.746094 351.71875 157.867188 351.71875 157.867188 L 347.003906 151.484375 L 345.933594 147.613281 L 351.90625 148.792969 L 351.96875 150.796875 " fill-opacity="1" fill-rule="nonzero"/><g clip-path="url(#70b891044d)"><path fill="#e66f64" d="M 348.160156 151 L 345.875 148.113281 C 345.875 148.113281 346.398438 142.070312 348.503906 139.945312 C 350.613281 137.8125 363.1875 141.910156 363.863281 142.15625 C 364.539062 142.398438 369.867188 145.878906 369.867188 145.878906 L 368.082031 147.933594 L 361.8125 150.640625 C 361.8125 150.640625 355.066406 149.941406 354.871094 150.269531 C 354.679688 150.59375 349.742188 150.996094 349.742188 150.996094 L 348.160156 151 " fill-opacity="1" fill-rule="nonzero"/></g><path fill="#ffffff" d="M 279.738281 69.066406 C 279.738281 69.066406 273.609375 57.722656 268.324219 64.847656 C 247.394531 93.082031 254.648438 129.742188 311.386719 157.058594 C 311.386719 157.058594 319.070312 161.863281 318.792969 154.488281 C 318.511719 147.054688 293.777344 118.941406 293.777344 118.941406 C 293.773438 103.515625 290.253906 86.980469 279.738281 69.066406 " fill-opacity="1" fill-rule="nonzero"/><path fill="#f68c82" d="M 322.054688 158.257812 C 322.054688 158.257812 326.128906 159.328125 327.574219 159.097656 C 329.023438 158.863281 329.125 157.875 329.125 157.875 L 322.644531 153.28125 L 318.75 152.289062 L 320.050781 158.234375 L 322.054688 158.257812 " fill-opacity="1" fill-rule="nonzero"/><path fill="#f68c82" d="M 313.023438 160.355469 L 311.386719 157.058594 C 311.386719 157.058594 313.144531 151.257812 315.648438 149.609375 C 318.148438 147.960938 329.601562 154.5625 330.214844 154.933594 C 330.828125 155.308594 335.324219 159.820312 335.324219 159.820312 L 333.148438 161.457031 L 326.460938 162.8125 C 326.460938 162.8125 320 160.746094 319.746094 161.027344 C 319.492188 161.304688 314.574219 160.675781 314.574219 160.675781 L 313.023438 160.355469 " fill-opacity="1" fill-rule="nonzero"/><path fill="#fab43d" d="M 309.113281 35.480469 C 309.113281 35.480469 286.945312 32.429688 276.21875 22.695312 C 276.21875 22.695312 278.914062 0.117188 301.675781 7.285156 C 301.675781 7.285156 319.695312 13.050781 315.253906 30.6875 C 315.253906 30.6875 323.921875 34.839844 324.027344 36.40625 C 324.128906 37.984375 316.613281 37.484375 309.113281 35.480469 " fill-opacity="1" fill-rule="nonzero"/><path fill="#f7981a" d="M 313.183594 30.679688 C 313.183594 30.679688 309.445312 32.230469 299.65625 30.777344 C 299.65625 30.777344 303.390625 8.167969 290.511719 5.976562 C 290.511719 5.976562 292.707031 4.617188 295.207031 4.910156 C 296.640625 5.082031 305.046875 5.949219 308.238281 9.8125 C 311.425781 13.675781 313.753906 21.40625 313.183594 30.679688 " fill-opacity="1" fill-rule="nonzero"/><path fill="#26285d" d="M 291.347656 37.335938 C 291.347656 42.609375 287.816406 46.875 283.457031 46.875 C 279.101562 46.875 275.570312 42.609375 275.570312 37.335938 C 275.570312 32.074219 279.101562 27.800781 283.457031 27.800781 C 287.816406 27.800781 291.347656 32.074219 291.347656 37.335938 " fill-opacity="1" fill-rule="nonzero"/><path fill="#f7981a" d="M 289.886719 37.789062 C 289.886719 43.054688 286.34375 47.601562 281.996094 47.324219 C 274.90625 46.875 272.363281 41.628906 272.363281 36.363281 C 272.363281 31.097656 276.644531 27.082031 281.996094 28.257812 C 286.25 29.1875 289.886719 32.523438 289.886719 37.789062 " fill-opacity="1" fill-rule="nonzero"/><path fill="#26285d" d="M 281.277344 29.6875 L 283.878906 30.371094 C 283.878906 30.371094 289.507812 9.980469 305.597656 11.507812 C 305.792969 11.53125 305.988281 11.554688 306.1875 11.574219 C 306.1875 11.574219 312.730469 11.769531 315.144531 20.007812 L 315.816406 19.34375 C 315.816406 19.34375 315.847656 10.722656 304.316406 8.839844 C 286.164062 5.875 281.277344 29.6875 281.277344 29.6875 " fill-opacity="1" fill-rule="nonzero"/><path fill="#ffffff" d="M 129.441406 191.34375 L 192.339844 169.601562 L 203.488281 212.597656 L 142.847656 233.917969 L 129.441406 191.34375 " fill-opacity="1" fill-rule="nonzero"/><path fill="#f7981a" d="M 127.746094 195.402344 L 190.640625 173.65625 L 201.792969 216.652344 L 141.15625 237.976562 L 127.746094 195.402344 " fill-opacity="1" fill-rule="nonzero"/><path fill="#2e3192" d="M 212.386719 90.503906 C 212.386719 90.503906 212.925781 89.703125 213.25 89.277344 C 213.570312 88.851562 213.601562 87.824219 213.71875 87.257812 C 213.839844 86.691406 214.46875 86.273438 214.890625 86.113281 C 215.3125 85.949219 214.820312 85.058594 214.9375 84.375 C 215.0625 83.691406 216.273438 83.03125 216.3125 82.597656 C 216.347656 82.167969 216.84375 81.140625 216.363281 80.691406 C 215.882812 80.246094 216.144531 76.4375 216.492188 76.183594 C 216.832031 75.933594 216.542969 74.539062 216.769531 74.289062 C 216.992188 74.03125 217.53125 73.179688 217.53125 73.179688 C 217.53125 73.179688 218.695312 72.519531 218.914062 72.007812 C 219.136719 71.492188 219.410156 69.074219 219.417969 68.941406 C 219.421875 68.8125 220.734375 66.332031 219.507812 65.515625 C 218.285156 64.707031 217.800781 63.425781 217.8125 63.019531 C 217.824219 62.613281 217.65625 61.222656 217.65625 61.222656 C 217.65625 61.222656 215.914062 60.476562 215.933594 59.957031 C 215.945312 59.4375 214.363281 56.707031 213.960938 56.261719 C 213.554688 55.8125 213.820312 54.523438 212.265625 54.046875 C 210.714844 53.570312 209.703125 52.585938 209.710938 52.328125 C 209.722656 52.066406 208.390625 51.25 208.390625 51.25 L 210.15625 51.300781 C 210.15625 51.300781 209.574219 49.722656 209.375 49.457031 C 209.175781 49.191406 208.140625 47.6875 207.652344 47.414062 C 207.160156 47.140625 204.300781 45.589844 204.300781 45.589844 C 204.300781 45.589844 202.328125 45.621094 201.5 45.507812 C 200.675781 45.402344 199.152344 44.144531 199.152344 44.144531 L 196.980469 44.433594 C 196.964844 44.515625 196.457031 44.160156 195.007812 44.03125 C 193.558594 43.902344 191.609375 43.242188 191.292969 43.40625 C 190.976562 43.574219 189.011719 42.738281 189.078125 42.480469 C 189.148438 42.21875 187.296875 41.558594 186.359375 41.792969 C 185.421875 42.027344 183.960938 43.203125 183.085938 42.574219 C 182.207031 41.945312 181.742188 41.367188 181.148438 41.585938 C 180.554688 41.808594 177.394531 43.542969 177.28125 43.800781 C 177.171875 44.058594 177.238281 45.449219 177.238281 45.449219 L 175.699219 46.878906 L 176.445312 47.847656 C 176.445312 47.847656 173.046875 48.105469 172.050781 47.988281 C 171.050781 47.875 169.953125 48.660156 169.445312 49.105469 C 168.929688 49.550781 167.816406 50.46875 167.878906 50.992188 C 167.941406 51.515625 166.667969 52.503906 166.960938 53.171875 C 167.253906 53.835938 167.808594 54.460938 167.777344 54.71875 C 167.742188 54.980469 166.246094 56.671875 166.246094 56.671875 C 166.246094 56.671875 164.167969 58.433594 165.003906 59.242188 C 165.835938 60.042969 165.804688 61.117188 165.378906 61.566406 C 164.953125 62.007812 163.800781 62.414062 164.191406 63.378906 C 164.578125 64.34375 164.355469 65.984375 164.019531 66.40625 C 163.675781 66.832031 162.285156 68.351562 162.480469 68.796875 C 162.679688 69.234375 162.535156 70.789062 162.417969 71.046875 C 162.3125 71.300781 161.242188 72.3125 161.125 72.914062 C 161.003906 73.519531 160.035156 74.882812 161.050781 75.515625 C 162.070312 76.152344 161.726562 77.355469 161.503906 77.960938 C 161.28125 78.558594 161.546875 80.214844 162.152344 80.660156 C 162.765625 81.113281 163.445312 82.574219 163.445312 82.574219 C 163.445312 82.574219 163.5625 84.085938 164.308594 84.28125 C 165.054688 84.472656 165.03125 85.4375 165.117188 85.910156 C 165.210938 86.382812 166.550781 86.703125 166.878906 87.085938 C 167.207031 87.460938 169.816406 88.421875 170.132812 88.425781 C 170.441406 88.441406 212.386719 90.503906 212.386719 90.503906 " fill-opacity="1" fill-rule="nonzero"/><path fill="#f7981a" d="M 181.609375 82.714844 C 181.648438 82.5625 184.75 76.550781 184.75 76.550781 C 184.75 76.550781 194.875 76.871094 195.03125 77.011719 C 195.183594 77.152344 196.183594 78.257812 196.183594 78.257812 L 199.570312 84.605469 L 194.742188 85.71875 L 181.609375 82.714844 " fill-opacity="1" fill-rule="nonzero"/><path fill="#26285d" d="M 208.84375 322.035156 C 208.84375 322.035156 213.015625 326.5625 215.246094 332.925781 C 216.546875 336.660156 213.484375 353.242188 213.484375 353.242188 L 211.058594 353.175781 L 211.496094 340.71875 L 208.84375 322.035156 " fill-opacity="1" fill-rule="nonzero"/><path fill="#26285d" d="M 197.796875 323.710938 C 197.796875 323.710938 199.925781 333.242188 198.160156 344.628906 C 198.160156 344.628906 196.898438 351.996094 191.785156 351.675781 C 186.671875 351.359375 186.679688 348.992188 186.679688 348.992188 C 186.679688 348.992188 190.441406 330.3125 191.210938 327.8125 C 191.976562 325.320312 197.796875 323.710938 197.796875 323.710938 " fill-opacity="1" fill-rule="nonzero"/><path fill="#793620" d="M 188.449219 312.515625 C 188.382812 312.035156 195.933594 313.601562 195.933594 313.601562 C 195.933594 313.601562 198.867188 326.667969 196.71875 338.191406 C 196.71875 338.191406 192.363281 347.980469 190.476562 338.179688 C 190.066406 336.03125 190.535156 332.769531 190.660156 332.304688 C 190.777344 331.839844 189.210938 318.164062 188.449219 312.515625 " fill-opacity="1" fill-rule="nonzero"/><path fill="#26285d" d="M 201.652344 272.722656 C 199.378906 255.59375 190.929688 245.128906 190.929688 245.128906 C 190.929688 245.128906 168.75 227.648438 173.160156 243.265625 C 180.167969 268.136719 186.691406 314.40625 190.726562 325.113281 C 191.199219 326.371094 191.636719 327.136719 192.039062 327.324219 C 192.226562 327.40625 192.414062 327.367188 192.613281 327.273438 C 193.640625 327.144531 195.746094 326.636719 196.597656 324.6875 C 197.125 323.472656 197.863281 316.910156 198.519531 310.199219 C 201.058594 297.945312 202.894531 282.054688 201.652344 272.722656 " fill-opacity="1" fill-rule="nonzero"/><path fill="#793620" d="M 165.550781 177.785156 C 165.550781 177.785156 164.855469 182.339844 161.839844 186.144531 C 158.824219 189.945312 158.480469 190.082031 156.242188 192.296875 C 154.6875 193.828125 154.9375 191.648438 154.890625 191.515625 C 154.863281 191.4375 154.785156 191.804688 154.300781 191.390625 C 154 191.132812 153.554688 190.210938 153.472656 189.675781 C 153.425781 189.328125 153.285156 188.144531 153.210938 187.628906 C 152.886719 185.15625 152.207031 180.523438 158.292969 173.410156 C 158.292969 173.410156 165.449219 172.015625 165.550781 177.785156 " fill-opacity="1" fill-rule="nonzero"/><path fill="#793620" d="M 165.210938 177.78125 C 165.210938 177.78125 168.355469 182.007812 167.015625 187.46875 C 165.675781 192.921875 164.972656 188.476562 162.359375 175.890625 L 165.210938 177.78125 " fill-opacity="1" fill-rule="nonzero"/><path fill="#f7981a" d="M 167.441406 82.035156 C 165.886719 82.515625 162.519531 101.347656 157.707031 126.546875 C 155.945312 135.753906 160.585938 132.914062 166.066406 132.398438 C 175.003906 131.546875 179.113281 100.832031 178.019531 91.570312 C 176.921875 82.308594 167.441406 82.035156 167.441406 82.035156 " fill-opacity="1" fill-rule="nonzero"/><path fill="#f7981a" d="M 164.976562 175.960938 C 163.820312 175.625 162.007812 174.199219 160.550781 174.441406 C 157.839844 174.882812 156.539062 175.5625 155.417969 177.347656 C 153.507812 136.265625 157.574219 131.414062 157.574219 131.414062 C 157.574219 131.414062 171.191406 120.296875 169.800781 132.585938 C 166.949219 157.714844 163.820312 170.972656 164.976562 175.960938 " fill-opacity="1" fill-rule="nonzero"/><path fill="#793620" d="M 172.078125 84.53125 C 172.078125 84.53125 186.097656 81.597656 187.046875 81.621094 C 188 81.648438 193.621094 82.597656 193.960938 82.605469 C 194.308594 82.613281 217.066406 88.3125 217.066406 88.3125 C 217.066406 88.3125 212.097656 105.386719 210.941406 106.246094 C 209.789062 107.105469 192 121.960938 191.027344 121.78125 C 190.058594 121.59375 174.199219 99.308594 174.199219 99.308594 L 172.078125 84.53125 " fill-opacity="1" fill-rule="nonzero"/><path fill="#26285d" d="M 172.003906 150.230469 L 193.484375 159.527344 C 193.484375 159.527344 205.28125 216.511719 195.605469 247.773438 C 191.894531 259.78125 179.859375 246.402344 174.960938 250.140625 C 174.132812 250.765625 164.5625 218.386719 164.597656 187.335938 C 164.625 163.542969 169.945312 156.457031 172.003906 150.230469 " fill-opacity="1" fill-rule="nonzero"/><path fill="#26285d" d="M 212.960938 328.429688 C 212.960938 328.429688 215.789062 341.40625 207.601562 349.835938 C 207.601562 349.835938 204.988281 354.179688 199.921875 353.410156 C 194.859375 352.636719 196.816406 350.664062 196.816406 350.664062 C 196.816406 350.664062 202.234375 332.390625 203.222656 329.976562 C 204.210938 327.554688 212.960938 328.429688 212.960938 328.429688 " fill-opacity="1" fill-rule="nonzero"/><path fill="#793620" d="M 184.195312 69.648438 C 184.105469 69.136719 196.886719 70.457031 196.886719 70.457031 C 196.886719 70.457031 194.980469 80.449219 196.140625 83.691406 C 196.140625 83.691406 188.707031 88.449219 184.613281 84.628906 C 184.613281 84.628906 184.433594 71.066406 184.195312 69.648438 " fill-opacity="1" fill-rule="nonzero"/><path fill="#9d4b36" d="M 183.035156 70.558594 C 183.035156 70.558594 188.882812 79.777344 196.933594 71.652344 C 203.050781 65.488281 199.738281 42.671875 194.988281 39.054688 C 190.234375 35.445312 179.925781 36.074219 177.304688 46.003906 C 175.257812 53.769531 177.835938 65.304688 183.035156 70.558594 " fill-opacity="1" fill-rule="nonzero"/><path fill="#fab43d" d="M 217.191406 83.9375 C 220.585938 88.054688 232.582031 107.730469 242.40625 117.070312 C 249.199219 123.53125 247.242188 125.773438 241.828125 126.808594 C 233.011719 128.496094 213.0625 112.148438 211.527344 102.949219 C 209.984375 93.75 217.191406 83.9375 217.191406 83.9375 " fill-opacity="1" fill-rule="nonzero"/><path fill="#2e3192" d="M 196.476562 241.445312 C 196.476562 241.445312 198.589844 225.503906 207.429688 240 C 222.710938 265.035156 206.585938 334.691406 205.265625 337.988281 C 202.59375 344.636719 198.851562 293.644531 190.957031 248.539062 C 190.628906 246.660156 196.476562 241.445312 196.476562 241.445312 " fill-opacity="1" fill-rule="nonzero"/><path fill="#9d4b36" d="M 208.84375 322.035156 L 208.726562 321.902344 C 208.207031 323.238281 207.324219 324.367188 206.011719 325.191406 C 204.699219 326.015625 203.132812 326.183594 201.742188 325.730469 C 201.574219 330.960938 201.320312 335.792969 201.238281 336.039062 C 201.074219 336.496094 200.230469 340.039062 201.050781 342.066406 C 202.640625 345.976562 207.777344 340.800781 207.777344 340.800781 C 215.695312 331.683594 208.84375 322.035156 208.84375 322.035156 " fill-opacity="1" fill-rule="nonzero"/><path fill="#2e3192" d="M 225.3125 172.3125 C 223.117188 166.738281 211.871094 162.527344 210.875 160.855469 C 210.699219 161.160156 210.546875 161.472656 210.367188 161.773438 C 203.816406 172.433594 192.164062 175.96875 179.804688 177.605469 L 181.027344 177.695312 C 182.871094 180.078125 189.363281 179.542969 190.382812 183.550781 C 188.5625 197.296875 188.871094 243.429688 191.285156 249.144531 C 195.066406 258.082031 207.425781 249.902344 207.425781 249.902344 C 221.941406 213.269531 225.3125 172.3125 225.3125 172.3125 " fill-opacity="1" fill-rule="nonzero"/><path fill="#2e3192" d="M 209.316406 162.394531 C 198.511719 167.585938 190.96875 173.941406 179.023438 172.1875 C 173.21875 171.332031 167.453125 170.214844 161.894531 168.289062 L 161.667969 169.023438 C 161.667969 169.023438 170.285156 173.90625 174.105469 178.253906 C 179.207031 184.070312 188.832031 199.613281 191.171875 193.238281 C 201.644531 164.714844 214.933594 167.097656 215.070312 166.109375 C 215.484375 163.160156 209.558594 162.277344 209.316406 162.394531 " fill-opacity="1" fill-rule="nonzero"/><path fill="#fab43d" d="M 196.03125 78.074219 C 196.03125 78.074219 202.5625 105.347656 181.570312 113.757812 C 181.570312 113.757812 177.722656 123.796875 177.476562 123.980469 C 177.238281 124.167969 172.972656 136.039062 172.972656 136.039062 L 166.246094 167.351562 C 166.246094 167.351562 163.390625 170.875 175.015625 172.179688 C 210.699219 176.183594 220.519531 161.121094 220.519531 161.121094 L 212.035156 141.578125 L 216.761719 112.105469 L 215.644531 100.273438 L 217.191406 83.9375 L 198.695312 81.945312 L 196.03125 78.074219 " fill-opacity="1" fill-rule="nonzero"/><path fill="#cce310" d="M 189.484375 109.152344 L 199.109375 87.855469 L 198.441406 81.121094 L 217.191406 83.9375 C 217.191406 83.9375 219.59375 118.867188 213.441406 141.929688 L 227.347656 172.601562 C 227.347656 172.601562 209.214844 185.347656 185.164062 181.632812 C 185.164062 181.632812 187.109375 130.816406 189.484375 109.152344 " fill-opacity="1" fill-rule="nonzero"/><path fill="#ffffff" d="M 205.832031 147.496094 C 205.390625 105.367188 212.695312 83.457031 212.695312 83.457031 L 206.4375 82.425781 C 197.125 100.863281 198.414062 127.679688 198.015625 147.300781 C 200.480469 146.800781 203.488281 146.699219 205.832031 147.496094 " fill-opacity="1" fill-rule="nonzero"/><path fill="#cce310" d="M 184.550781 80.738281 C 184.550781 80.738281 182.757812 87.890625 189.484375 109.152344 L 185.164062 181.632812 C 162.789062 179.257812 159.472656 174.648438 159.472656 174.648438 C 161.214844 164.398438 165.8125 148.140625 165.839844 147.246094 C 165.902344 145.082031 166.058594 130.960938 166.019531 128.707031 C 165.664062 109.753906 162.816406 94.515625 167.441406 82.035156 L 184.550781 80.738281 " fill-opacity="1" fill-rule="nonzero"/><path fill="#ffffff" d="M 171.546875 145.550781 C 172.375 145.765625 173.140625 146.054688 173.878906 146.386719 C 172.382812 103.496094 179.769531 81.101562 179.769531 81.101562 L 174.117188 81.53125 C 166.386719 99.792969 165.945312 126.886719 166.402344 145.292969 C 168.128906 145.0625 169.878906 145.128906 171.546875 145.550781 " fill-opacity="1" fill-rule="nonzero"/><path fill="#ffffff" d="M 217.085938 148.527344 L 215.546875 143.1875 C 215.546875 143.1875 195.296875 150.941406 165.8125 141.671875 L 165.960938 147.558594 C 165.960938 147.558594 184.324219 157.550781 217.085938 148.527344 " fill-opacity="1" fill-rule="nonzero"/><path fill="#fab43d" d="M 233.648438 118.359375 C 222.128906 130.480469 212.390625 134.597656 204.144531 137.03125 C 205.296875 140.785156 204.511719 144.976562 201.335938 147.070312 C 220.941406 150.851562 247.734375 125.277344 247.734375 125.277344 C 247.734375 125.277344 242.175781 109.398438 233.648438 118.359375 " fill-opacity="1" fill-rule="nonzero"/><path fill="#9d4b36" d="M 204.144531 137.03125 C 204.144531 137.03125 200.226562 134.597656 195.367188 134.414062 C 190.519531 134.222656 190.199219 134.394531 187.050781 134.660156 C 184.875 134.835938 186.691406 136.070312 186.757812 136.183594 C 186.808594 136.257812 186.476562 136.082031 186.480469 136.714844 C 186.476562 137.117188 186.890625 138.058594 187.246094 138.464844 C 187.476562 138.722656 188.285156 139.605469 188.640625 139.992188 C 190.300781 141.855469 192.398438 147.285156 201.761719 147.292969 C 201.761719 147.292969 208.457031 140.855469 204.144531 137.03125 " fill-opacity="1" fill-rule="nonzero"/><path fill="#9d4b36" d="M 204.898438 137.871094 C 204.898438 137.871094 201.601562 133.390625 196.222656 131.746094 C 190.84375 130.105469 194.3125 132.980469 203.804688 141.664062 L 204.898438 137.871094 " fill-opacity="1" fill-rule="nonzero"/><path fill="#2e3192" d="M 202.585938 51.476562 C 202.609375 50.382812 204.476562 50.90625 202.746094 45.695312 C 201.011719 40.488281 207.289062 39.875 199.714844 36.378906 C 196.707031 34.996094 194.132812 33.730469 191.886719 32.78125 C 191.914062 35.28125 190.59375 37.566406 189.21875 39.664062 C 188.402344 40.90625 187.261719 41.421875 186.113281 41.445312 C 186.292969 41.824219 186.445312 42.113281 186.445312 42.113281 C 186.445312 42.113281 185.933594 44.757812 187.835938 45.59375 C 189.734375 46.425781 189.191406 46.882812 189.902344 47.683594 C 190.617188 48.484375 191.542969 49.292969 191.542969 49.292969 C 191.542969 49.292969 192.601562 50.574219 192.867188 51.988281 C 193.136719 53.402344 195.492188 53.3125 195.492188 53.3125 C 195.492188 53.3125 194.976562 55.015625 195.421875 55.8125 C 195.867188 56.605469 198.167969 58.234375 198.167969 58.234375 L 198.078125 61.515625 L 199.296875 62.800781 C 199.296875 62.800781 198.824219 64.773438 199.230469 65.304688 C 199.625 65.832031 199.578125 64.996094 200.125 64.542969 C 200.667969 64.085938 203.363281 57.171875 203.382812 56.519531 C 203.398438 55.878906 202.554688 52.570312 202.585938 51.476562 " fill-opacity="1" fill-rule="nonzero"/><path fill="#fab43d" d="M 196.097656 78.265625 C 196.097656 78.265625 200.359375 82.3125 202.027344 85.640625 C 203.691406 88.972656 192.179688 103.183594 192.179688 103.183594 C 192.179688 103.183594 196.886719 82.449219 196.097656 78.265625 " fill-opacity="1" fill-rule="nonzero"/><path fill="#fab43d" d="M 184.039062 77.929688 L 184.484375 77.347656 C 184.484375 77.347656 185.628906 92.203125 187.675781 103.058594 C 187.675781 103.058594 178.425781 92.0625 179.097656 86.582031 C 179.769531 81.101562 184.039062 77.929688 184.039062 77.929688 " fill-opacity="1" fill-rule="nonzero"/><path fill="#fab43d" d="M 180.273438 49.089844 C 184.710938 50.308594 189.355469 51.175781 193.914062 51.691406 C 196.320312 51.972656 198.722656 52.199219 201.148438 52.277344 L 201.4375 52.28125 C 203.058594 51.316406 204.773438 50.523438 206.796875 49.894531 L 207.042969 49.828125 C 207.179688 49 207.277344 48.160156 207.300781 47.292969 C 207.574219 37.488281 200.484375 29.34375 191.46875 29.09375 C 182.445312 28.839844 174.914062 36.585938 174.644531 46.386719 C 174.621094 47.191406 174.667969 47.976562 174.738281 48.757812 C 176.445312 48.46875 178.292969 48.542969 180.273438 49.089844 " fill-opacity="1" fill-rule="nonzero"/><path fill="#f7981a" d="M 185.699219 48.140625 C 185.699219 48.140625 184.140625 30.488281 185.261719 29.621094 C 186.386719 28.753906 193.53125 26.90625 198.039062 29.976562 C 198.039062 29.976562 198.722656 32.945312 194.285156 48.492188 L 190.933594 50.792969 L 185.699219 48.140625 " fill-opacity="1" fill-rule="nonzero"/><path fill="#fab43d" d="M 208.722656 50.355469 C 208.640625 53.375 200.585938 55.605469 190.734375 55.328125 C 180.886719 55.058594 172.96875 52.386719 173.054688 49.367188 C 173.136719 46.347656 181.683594 48.171875 191.535156 48.445312 C 201.382812 48.714844 208.808594 47.335938 208.722656 50.355469 " fill-opacity="1" fill-rule="nonzero"/><path fill="#f7981a" d="M 173.121094 49.855469 C 173.847656 52.667969 181.421875 55.074219 190.734375 55.328125 C 200.585938 55.605469 208.640625 53.375 208.722656 50.355469 L 208.699219 50.210938 C 197.664062 55.113281 183.78125 55.9375 173.121094 49.855469 " fill-opacity="1" fill-rule="nonzero"/><path fill="#f7981a" d="M 193.351562 29.527344 C 193.3125 31.039062 192.425781 32.234375 191.378906 32.203125 C 190.332031 32.175781 189.515625 30.933594 189.554688 29.425781 C 189.601562 27.921875 190.484375 26.71875 191.527344 26.75 C 192.574219 26.78125 193.390625 28.027344 193.351562 29.527344 " fill-opacity="1" fill-rule="nonzero"/><path fill="#26285d" d="M 124.3125 315.527344 C 124.3125 315.527344 128.960938 318.546875 131.351562 324.738281 C 137.628906 340.9375 116.085938 334.617188 109.21875 328.714844 C 106.417969 326.308594 105.199219 310.59375 111.695312 309.078125 C 114.226562 308.488281 124.3125 315.527344 124.3125 315.527344 " fill-opacity="1" fill-rule="nonzero"/><path fill="#f68c82" d="M 131.839844 111.980469 C 131.839844 111.980469 127.644531 127.226562 116.746094 143.621094 C 116.746094 143.621094 111.128906 154.148438 119.558594 152.445312 C 127.992188 150.734375 146.15625 128.863281 148.082031 120.59375 C 150.015625 112.320312 141.855469 93.542969 131.839844 111.980469 " fill-opacity="1" fill-rule="nonzero"/><path fill="#26285d" d="M 89.140625 313.671875 C 89.140625 313.671875 90.722656 314.320312 90.78125 314.824219 C 90.828125 315.332031 92.097656 322.046875 91.789062 323.261719 C 91.480469 324.46875 72.898438 328.605469 72.898438 328.605469 C 72.898438 328.605469 59.597656 330.535156 52.707031 327.183594 C 51.132812 326.421875 52.050781 325.101562 52.523438 324.652344 C 61.863281 315.792969 78.097656 311.132812 78.097656 311.132812 L 89.140625 313.671875 " fill-opacity="1" fill-rule="nonzero"/><path fill="#f68c82" d="M 112.394531 307.28125 C 112.394531 307.28125 113.390625 317.683594 113.351562 317.882812 C 112.96875 319.488281 108.496094 319.90625 107.074219 318.804688 L 103.746094 308.957031 L 112.394531 307.28125 " fill-opacity="1" fill-rule="nonzero"/><path fill="#f68c82" d="M 88.984375 304.992188 C 88.984375 304.992188 89.894531 315.339844 89.832031 315.617188 C 89.476562 317.226562 85.195312 317.835938 83.785156 316.710938 L 81.105469 306.4375 L 88.984375 304.992188 " fill-opacity="1" fill-rule="nonzero"/><path fill="#26285d" d="M 50.242188 147.679688 C 51.457031 173.261719 53.773438 210.945312 57.570312 232.574219 C 57.570312 232.574219 81.496094 226.074219 82.835938 217.835938 C 83.710938 212.480469 79.871094 173.960938 77.078125 147.679688 L 50.242188 147.679688 " fill-opacity="1" fill-rule="nonzero"/><path fill="#2e3192" d="M 58.734375 147.679688 C 65.945312 163.339844 76.023438 179.875 76.023438 180.222656 C 89.578125 242.53125 101.289062 307.195312 105.605469 320.214844 C 107.398438 325.628906 127.242188 317.28125 127.242188 317.28125 C 125.3125 272.234375 119.035156 271.933594 107.117188 147.679688 L 58.734375 147.679688 " fill-opacity="1" fill-rule="nonzero"/><path fill="#f7981a" d="M 90.53125 169.738281 C 90.53125 169.738281 94.824219 211.617188 100.085938 208.984375 C 100.890625 208.582031 124.46875 207.777344 124.851562 207.105469 C 125.242188 206.429688 119.085938 175.785156 116.644531 172.15625 L 90.53125 169.738281 " fill-opacity="1" fill-rule="nonzero"/><path fill="#f7981a" d="M 95.324219 161.601562 C 95.324219 162.40625 102.050781 217.25 102.050781 217.25 L 107.699219 217.25 L 100.035156 161.601562 L 95.324219 161.601562 " fill-opacity="1" fill-rule="nonzero"/><path fill="#ffffff" d="M 94.753906 179.277344 L 98.648438 194.027344 L 119.722656 189.421875 L 114.496094 173.859375 L 94.753906 179.277344 " fill-opacity="1" fill-rule="nonzero"/><path fill="#f7981a" d="M 68.222656 156.695312 C 68.222656 156.695312 64.265625 195.34375 59.410156 192.917969 C 58.664062 192.542969 36.90625 191.800781 36.546875 191.179688 C 36.195312 190.558594 41.875 162.277344 44.125 158.929688 L 68.222656 156.695312 " fill-opacity="1" fill-rule="nonzero"/><path fill="#f7981a" d="M 65.445312 174.863281 C 65.445312 174.863281 61.488281 213.511719 56.628906 211.082031 C 55.882812 210.710938 37.460938 209.015625 37.105469 208.398438 C 36.757812 207.777344 42.207031 180.648438 44.460938 177.296875 L 65.445312 174.863281 " fill-opacity="1" fill-rule="nonzero"/><path fill="#26285d" d="M 76.808594 214.019531 C 76.808594 214.019531 81.738281 212.8125 82.683594 215.464844 C 83.632812 218.121094 89.910156 298.726562 91.265625 317.792969 C 91.265625 317.792969 72.019531 320.621094 69.449219 317.285156 C 65.5 312.160156 57.570312 232.574219 57.570312 232.574219 L 76.808594 214.019531 " fill-opacity="1" fill-rule="nonzero"/><path fill="#ffffff" d="M 95.488281 62.800781 C 95.488281 62.800781 115.15625 64.292969 146.523438 107.113281 C 146.523438 107.113281 149.667969 111.574219 136.242188 115.125 C 128.0625 117.285156 117.949219 105.351562 95.222656 84.894531 C 95.222656 84.894531 89.15625 61.609375 95.488281 62.800781 " fill-opacity="1" fill-rule="nonzero"/><path fill="#2e3192" d="M 62.21875 25.871094 C 62.347656 29.28125 62.871094 32.917969 64.328125 35.40625 L 67.28125 24.992188 C 65.613281 25.355469 63.929688 25.648438 62.21875 25.871094 " fill-opacity="1" fill-rule="nonzero"/><path fill="#ffffff" d="M 109 68.890625 C 109 68.890625 83.582031 58.75 79.527344 58.425781 L 52.378906 67.777344 C 52.378906 67.777344 49.164062 137.40625 49.480469 143.621094 C 56.992188 144.25 72.910156 148.824219 80.523438 148.980469 C 84.445312 149.0625 92.398438 148.289062 99.910156 145.882812 C 102.339844 137.214844 111.46875 83.570312 109 68.890625 " fill-opacity="1" fill-rule="nonzero"/><path fill="#bdbcbc" d="M 54.25 65.59375 C 54.25 65.59375 35.660156 73.910156 21.179688 124.964844 C 21.179688 124.964844 35.527344 132.078125 40.085938 124.964844 C 44.648438 117.847656 49.671875 109.976562 63.851562 82.890625 C 63.851562 82.890625 59.761719 62.269531 54.25 65.59375 " fill-opacity="1" fill-rule="nonzero"/><path fill="#f7981a" d="M 52.378906 144.449219 L 105.882812 141.332031 C 105.882812 141.332031 103.851562 153.035156 103.460938 153.207031 C 103.078125 153.378906 80.464844 158.398438 80.464844 158.398438 L 57.488281 154.59375 L 52.378906 144.449219 " fill-opacity="1" fill-rule="nonzero"/><path fill="#fab43d" d="M 67.28125 61.65625 L 53.164062 65.230469 L 43.578125 181.777344 L 74.261719 187.636719 L 67.28125 61.65625 " fill-opacity="1" fill-rule="nonzero"/><path fill="#fab43d" d="M 93.429688 61.089844 L 110.675781 68.765625 L 117.847656 181.777344 L 87.164062 187.636719 L 93.429688 61.089844 " fill-opacity="1" fill-rule="nonzero"/><path fill="#ffffff" d="M 47.101562 122.320312 L 46.335938 134.421875 L 70.046875 134.421875 L 69.148438 122.320312 L 47.101562 122.320312 " fill-opacity="1" fill-rule="nonzero"/><path fill="#ffffff" d="M 71.722656 162.644531 L 70.5625 147.054688 L 45.105469 147.054688 L 44.113281 162.644531 L 71.722656 162.644531 " fill-opacity="1" fill-rule="nonzero"/><path fill="#ffffff" d="M 93.089844 122.320312 L 92.183594 134.421875 L 115.894531 134.421875 L 115.132812 122.320312 L 93.089844 122.320312 " fill-opacity="1" fill-rule="nonzero"/><path fill="#ffffff" d="M 117.847656 162.644531 L 116.859375 147.054688 L 91.40625 147.054688 L 90.238281 162.644531 L 117.847656 162.644531 " fill-opacity="1" fill-rule="nonzero"/><path fill="#e66f64" d="M 88.664062 48.769531 C 88.855469 48.265625 72.550781 49.339844 72.550781 49.339844 C 72.550781 49.339844 73.71875 59.710938 72.28125 62.9375 L 80.476562 76.886719 C 80.476562 76.886719 86.925781 65.0625 88.328125 62.425781 C 88.328125 62.425781 85.984375 55.886719 88.664062 48.769531 " fill-opacity="1" fill-rule="nonzero"/><path fill="#f68c82" d="M 68.691406 51.949219 C 68.691406 51.949219 75.382812 62.226562 86.730469 54.648438 C 95.34375 48.894531 102.789062 19.433594 98.097656 14.082031 C 93.402344 8.738281 71.628906 7.683594 66.199219 18.664062 C 61.960938 27.25 63.855469 44.570312 68.691406 51.949219 " fill-opacity="1" fill-rule="nonzero"/><path fill="#2e3192" d="M 70.648438 27.679688 C 70.648438 27.679688 76.351562 35.300781 90.300781 36.46875 C 90.300781 36.46875 82.625 26.144531 80.476562 25.164062 C 78.328125 24.1875 70.648438 27.679688 70.648438 27.679688 " fill-opacity="1" fill-rule="nonzero"/><path fill="#2e3192" d="M 64.75 23.878906 C 64.75 23.878906 66.464844 33.234375 78.429688 40.480469 C 78.429688 40.480469 76.160156 27.828125 74.671875 25.992188 C 73.1875 24.167969 64.75 23.878906 64.75 23.878906 " fill-opacity="1" fill-rule="nonzero"/><path fill="#2e3192" d="M 87.699219 22.414062 C 87.699219 22.414062 86.925781 10.953125 94.542969 12.824219 C 94.542969 12.824219 107.082031 25.507812 98.929688 39.5 C 94.476562 47.128906 87.507812 58.425781 87.507812 58.425781 L 87.695312 52.871094 C 87.695312 52.871094 94.269531 27.308594 87.699219 22.414062 " fill-opacity="1" fill-rule="nonzero"/><path fill="#f68c82" d="M 87.613281 42.21875 C 86.410156 44.84375 86.839844 47.617188 88.578125 48.414062 C 90.3125 49.222656 92.707031 47.742188 93.914062 45.121094 C 95.121094 42.496094 94.6875 39.726562 92.953125 38.921875 C 91.214844 38.125 88.820312 39.605469 87.613281 42.21875 " fill-opacity="1" fill-rule="nonzero"/><path fill="#f68c82" d="M 114.664062 147.667969 C 114.664062 147.667969 112.53125 150.167969 108.164062 145.433594 C 103.789062 140.699219 105.570312 139.71875 118.34375 144.640625 L 114.664062 147.667969 " fill-opacity="1" fill-rule="nonzero"/><path fill="#f68c82" d="M 114.304688 143.097656 C 114.304688 143.097656 112.640625 142.152344 108.164062 145.433594 C 103.683594 148.714844 102.242188 151.863281 100.652344 154.785156 C 99.453125 156.988281 101.160156 156.214844 101.296875 156.261719 C 101.378906 156.292969 100.976562 156.375 101.355469 156.90625 C 101.585938 157.238281 102.519531 157.722656 103.082031 157.808594 C 103.441406 157.863281 104.683594 158.019531 105.234375 158.097656 C 107.832031 158.46875 112.699219 158.558594 121.125 151.941406 C 121.125 151.941406 121.738281 143.585938 114.304688 143.097656 " fill-opacity="1" fill-rule="nonzero"/><path fill="#ffffff" d="M 68.785156 30.039062 C 68.785156 30.039062 89.859375 31.425781 101.175781 25.273438 C 101.175781 25.273438 102.339844 5.832031 81.152344 7.226562 C 81.152344 7.226562 64.367188 8.417969 64.488281 24.59375 C 64.488281 24.59375 56.125 26.359375 55.699219 27.695312 C 55.28125 29.035156 61.871094 30.183594 68.785156 30.039062 " fill-opacity="1" fill-rule="nonzero"/><path fill="#bdbcbc" d="M 66.273438 25.027344 C 66.273438 25.027344 69.183594 27.152344 77.957031 27.960938 C 77.957031 27.960938 79.488281 7.632812 91.085938 8.457031 C 91.085938 8.457031 89.476562 6.808594 87.25 6.539062 C 85.980469 6.382812 78.527344 5.367188 74.949219 8.03125 C 71.386719 10.699219 67.738281 16.890625 66.273438 25.027344 " fill-opacity="1" fill-rule="nonzero"/><path fill="#ffffff" d="M 127.9375 110.125 C 127.9375 110.125 125.253906 113.445312 126.042969 115.503906 C 126.828125 117.566406 127.546875 122.492188 141.453125 121.152344 C 155.347656 119.804688 154 109.320312 145.121094 106.183594 C 136.242188 103.046875 127.9375 110.125 127.9375 110.125 " fill-opacity="1" fill-rule="nonzero"/><path fill="#ffffff" d="M 87.382812 56.277344 C 87.382812 56.277344 87.363281 59.976562 87.996094 61.261719 C 88.632812 62.550781 80.476562 76.886719 80.476562 76.886719 L 97.828125 59.320312 L 87.382812 56.277344 " fill-opacity="1" fill-rule="nonzero"/><path fill="#ffffff" d="M 73.363281 56.277344 C 73.363281 56.277344 73.386719 59.976562 72.746094 61.261719 C 72.109375 62.550781 80.269531 76.886719 80.269531 76.886719 L 62.917969 59.320312 L 73.363281 56.277344 " fill-opacity="1" fill-rule="nonzero"/><path fill="#e66f64" d="M 46.851562 163.304688 C 40.945312 146.605469 40.160156 130.53125 40.085938 124.808594 C 36.96875 127.492188 32.675781 128.890625 27.960938 129.054688 C 25.917969 129.125 23.917969 129.003906 21.984375 128.695312 C 23.546875 139.894531 33.796875 163.070312 40.210938 167.109375 C 47.484375 171.691406 46.851562 163.304688 46.851562 163.304688 " fill-opacity="1" fill-rule="nonzero"/><path fill="#e66f64" d="M 46.703125 167.949219 C 46.703125 167.949219 43.949219 169.738281 48.085938 174.675781 C 52.222656 179.613281 53.417969 177.984375 50.1875 164.6875 L 46.703125 167.949219 " fill-opacity="1" fill-rule="nonzero"/><path fill="#e66f64" d="M 48.683594 162.085938 C 48.683594 162.085938 50.5 162.695312 51.050781 168.21875 C 51.601562 173.738281 50.222656 176.914062 49.117188 180.046875 C 48.273438 182.414062 47.707031 180.625 47.582031 180.558594 C 47.5 180.523438 47.707031 180.871094 47.0625 180.945312 C 46.65625 180.996094 45.679688 180.628906 45.238281 180.265625 C 44.957031 180.035156 44.003906 179.214844 43.578125 178.863281 C 41.570312 177.179688 37.761719 174.074219 37.054688 163.382812 C 37.054688 163.382812 43.347656 156.894531 48.683594 162.085938 " fill-opacity="1" fill-rule="nonzero"/><path fill="#bdbcbc" d="M 20.003906 122.1875 C 20.003906 122.1875 16.894531 125.101562 17.390625 127.253906 C 17.886719 129.402344 17.917969 134.386719 31.867188 134.960938 C 45.824219 135.542969 45.933594 124.972656 37.570312 120.644531 C 29.207031 116.316406 20.003906 122.1875 20.003906 122.1875 " fill-opacity="1" fill-rule="nonzero"/></svg>